# xmcd
#
# Track frame offsets:
#	187
#	27440
#	55177
#	74707
#	106125
#	132717
#	154840
#	172360
#	193277
#	206385
#	232912
#	253005
#	277030
#
# Disc length: 4195 seconds
#
# Revision: 1
# Processed by: cddbd v1.5.1PL0 Copyright (c) Steve Scherf et al.
# Submitted via: CDex 1.50Beta5
#
DISCID=cc10610d
DTITLE=高中正義 - 高中正義best selection Strings&Voices Disc 2
DYEAR=1993
DGENRE=
TTITLE0=Mambo Magic
TTITLE1=憧れのセーシェル諸島
TTITLE2=トーキョーレギー
TTITLE3=Ready To Fly
TTITLE4=SEXY DANCE
TTITLE5=Nights
TTITLE6=パラレル・ターン
TTITLE7=Chill Me Out
TTITLE8=PARADIZZY
TTITLE9=Brasilian Skies
TTITLE10=サヨナラ…FUJIさん
TTITLE11=大航海時代
TTITLE12=SEVENTEEN AND BLUE
EXTD=
EXTT0=
EXTT1=
EXTT2=
EXTT3=
EXTT4=
EXTT5=
EXTT6=
EXTT7=
EXTT8=
EXTT9=
EXTT10=
EXTT11=
EXTT12=
PLAYORDER=
